<mxfile host="app.diagrams.net" agent="Mozilla/5.0 (Windows NT 10.0; Win64; x64) AppleWebKit/537.36 (KHTML, like Gecko) Chrome/132.0.0.0 Safari/537.36" version="26.0.9">
  <diagram name="第 1 页" id="PKpueSi5Or5C7xbQTrQ_">
    <mxGraphModel dx="880" dy="468" grid="0" gridSize="10" guides="1" tooltips="1" connect="1" arrows="1" fold="1" page="1" pageScale="1" pageWidth="827" pageHeight="1169" math="0" shadow="0">
      <root>
        <mxCell id="0" />
        <mxCell id="1" parent="0" />
        <mxCell id="egMN0sAgLKU0uGwS3a4j-1" value="图书求购实体" style="rounded=0;whiteSpace=wrap;html=1;" vertex="1" parent="1">
          <mxGeometry x="303" y="220" width="106" height="48" as="geometry" />
        </mxCell>
        <mxCell id="egMN0sAgLKU0uGwS3a4j-2" style="rounded=0;orthogonalLoop=1;jettySize=auto;html=1;entryX=0.5;entryY=0;entryDx=0;entryDy=0;endArrow=none;startFill=0;" edge="1" parent="1" target="egMN0sAgLKU0uGwS3a4j-1">
          <mxGeometry relative="1" as="geometry">
            <mxPoint x="185.47087928785368" y="165.48966684407708" as="sourcePoint" />
            <mxPoint x="340.99" y="221.024" as="targetPoint" />
          </mxGeometry>
        </mxCell>
        <mxCell id="egMN0sAgLKU0uGwS3a4j-3" value="主键id" style="ellipse;whiteSpace=wrap;html=1;" vertex="1" parent="1">
          <mxGeometry x="116" y="136" width="77" height="37" as="geometry" />
        </mxCell>
        <mxCell id="egMN0sAgLKU0uGwS3a4j-4" value="图书图片" style="ellipse;whiteSpace=wrap;html=1;" vertex="1" parent="1">
          <mxGeometry x="450" y="88" width="77" height="37" as="geometry" />
        </mxCell>
        <mxCell id="egMN0sAgLKU0uGwS3a4j-5" value="图书名称" style="ellipse;whiteSpace=wrap;html=1;" vertex="1" parent="1">
          <mxGeometry x="334" y="62" width="77" height="37" as="geometry" />
        </mxCell>
        <mxCell id="egMN0sAgLKU0uGwS3a4j-6" value="作者" style="ellipse;whiteSpace=wrap;html=1;" vertex="1" parent="1">
          <mxGeometry x="527" y="127" width="77" height="37" as="geometry" />
        </mxCell>
        <mxCell id="egMN0sAgLKU0uGwS3a4j-7" value="图书类型" style="ellipse;whiteSpace=wrap;html=1;" vertex="1" parent="1">
          <mxGeometry x="529" y="290" width="77" height="37" as="geometry" />
        </mxCell>
        <mxCell id="egMN0sAgLKU0uGwS3a4j-8" value="求购状态" style="ellipse;whiteSpace=wrap;html=1;" vertex="1" parent="1">
          <mxGeometry x="100" y="210" width="77" height="37" as="geometry" />
        </mxCell>
        <mxCell id="egMN0sAgLKU0uGwS3a4j-9" style="rounded=0;orthogonalLoop=1;jettySize=auto;html=1;endArrow=none;startFill=0;exitX=0.5;exitY=1;exitDx=0;exitDy=0;entryX=0.5;entryY=0;entryDx=0;entryDy=0;" edge="1" parent="1" source="egMN0sAgLKU0uGwS3a4j-11" target="egMN0sAgLKU0uGwS3a4j-1">
          <mxGeometry relative="1" as="geometry">
            <mxPoint x="328.5" y="116" as="sourcePoint" />
            <mxPoint x="334" y="218" as="targetPoint" />
          </mxGeometry>
        </mxCell>
        <mxCell id="egMN0sAgLKU0uGwS3a4j-10" style="rounded=0;orthogonalLoop=1;jettySize=auto;html=1;entryX=0.5;entryY=0;entryDx=0;entryDy=0;endArrow=none;startFill=0;exitX=0.5;exitY=1;exitDx=0;exitDy=0;" edge="1" parent="1" source="egMN0sAgLKU0uGwS3a4j-5" target="egMN0sAgLKU0uGwS3a4j-1">
          <mxGeometry relative="1" as="geometry">
            <mxPoint x="339" y="136" as="sourcePoint" />
            <mxPoint x="344" y="238" as="targetPoint" />
          </mxGeometry>
        </mxCell>
        <mxCell id="egMN0sAgLKU0uGwS3a4j-11" value="用户id" style="ellipse;whiteSpace=wrap;html=1;" vertex="1" parent="1">
          <mxGeometry x="205" y="74" width="77" height="37" as="geometry" />
        </mxCell>
        <mxCell id="egMN0sAgLKU0uGwS3a4j-12" style="rounded=0;orthogonalLoop=1;jettySize=auto;html=1;endArrow=none;startFill=0;exitX=0.5;exitY=1;exitDx=0;exitDy=0;entryX=0.5;entryY=0;entryDx=0;entryDy=0;" edge="1" parent="1" source="egMN0sAgLKU0uGwS3a4j-4" target="egMN0sAgLKU0uGwS3a4j-1">
          <mxGeometry relative="1" as="geometry">
            <mxPoint x="383" y="109" as="sourcePoint" />
            <mxPoint x="351" y="215" as="targetPoint" />
          </mxGeometry>
        </mxCell>
        <mxCell id="egMN0sAgLKU0uGwS3a4j-13" style="rounded=0;orthogonalLoop=1;jettySize=auto;html=1;endArrow=none;startFill=0;exitX=0.5;exitY=1;exitDx=0;exitDy=0;entryX=0.5;entryY=0;entryDx=0;entryDy=0;" edge="1" parent="1" source="egMN0sAgLKU0uGwS3a4j-6" target="egMN0sAgLKU0uGwS3a4j-1">
          <mxGeometry relative="1" as="geometry">
            <mxPoint x="499" y="135" as="sourcePoint" />
            <mxPoint x="361" y="225" as="targetPoint" />
          </mxGeometry>
        </mxCell>
        <mxCell id="egMN0sAgLKU0uGwS3a4j-14" style="rounded=0;orthogonalLoop=1;jettySize=auto;html=1;endArrow=none;startFill=0;entryX=0;entryY=0.5;entryDx=0;entryDy=0;exitX=1;exitY=0.5;exitDx=0;exitDy=0;" edge="1" parent="1" source="egMN0sAgLKU0uGwS3a4j-8" target="egMN0sAgLKU0uGwS3a4j-1">
          <mxGeometry relative="1" as="geometry">
            <mxPoint x="336" y="334" as="sourcePoint" />
            <mxPoint x="366" y="278" as="targetPoint" />
          </mxGeometry>
        </mxCell>
        <mxCell id="egMN0sAgLKU0uGwS3a4j-15" style="rounded=0;orthogonalLoop=1;jettySize=auto;html=1;endArrow=none;startFill=0;entryX=1;entryY=0.5;entryDx=0;entryDy=0;exitX=0;exitY=0.5;exitDx=0;exitDy=0;" edge="1" parent="1" source="egMN0sAgLKU0uGwS3a4j-7" target="egMN0sAgLKU0uGwS3a4j-1">
          <mxGeometry relative="1" as="geometry">
            <mxPoint x="481" y="325" as="sourcePoint" />
            <mxPoint x="366" y="278" as="targetPoint" />
          </mxGeometry>
        </mxCell>
        <mxCell id="egMN0sAgLKU0uGwS3a4j-16" value="出版社" style="ellipse;whiteSpace=wrap;html=1;" vertex="1" parent="1">
          <mxGeometry x="529" y="220" width="77" height="37" as="geometry" />
        </mxCell>
        <mxCell id="egMN0sAgLKU0uGwS3a4j-17" style="rounded=0;orthogonalLoop=1;jettySize=auto;html=1;endArrow=none;startFill=0;entryX=1;entryY=0.5;entryDx=0;entryDy=0;exitX=0;exitY=0.5;exitDx=0;exitDy=0;" edge="1" parent="1" source="egMN0sAgLKU0uGwS3a4j-16" target="egMN0sAgLKU0uGwS3a4j-1">
          <mxGeometry relative="1" as="geometry">
            <mxPoint x="523" y="297" as="sourcePoint" />
            <mxPoint x="419" y="254" as="targetPoint" />
          </mxGeometry>
        </mxCell>
        <mxCell id="egMN0sAgLKU0uGwS3a4j-18" value="图书详情" style="ellipse;whiteSpace=wrap;html=1;" vertex="1" parent="1">
          <mxGeometry x="116" y="284" width="77" height="37" as="geometry" />
        </mxCell>
        <mxCell id="egMN0sAgLKU0uGwS3a4j-19" style="rounded=0;orthogonalLoop=1;jettySize=auto;html=1;endArrow=none;startFill=0;entryX=0;entryY=0.5;entryDx=0;entryDy=0;exitX=0.5;exitY=0;exitDx=0;exitDy=0;" edge="1" parent="1" source="egMN0sAgLKU0uGwS3a4j-18" target="egMN0sAgLKU0uGwS3a4j-1">
          <mxGeometry relative="1" as="geometry">
            <mxPoint x="424" y="333" as="sourcePoint" />
            <mxPoint x="366" y="278" as="targetPoint" />
          </mxGeometry>
        </mxCell>
        <mxCell id="egMN0sAgLKU0uGwS3a4j-20" value="创建时间" style="ellipse;whiteSpace=wrap;html=1;" vertex="1" parent="1">
          <mxGeometry x="303" y="310" width="77" height="37" as="geometry" />
        </mxCell>
        <mxCell id="egMN0sAgLKU0uGwS3a4j-21" style="rounded=0;orthogonalLoop=1;jettySize=auto;html=1;endArrow=none;startFill=0;entryX=0.5;entryY=1;entryDx=0;entryDy=0;" edge="1" parent="1" source="egMN0sAgLKU0uGwS3a4j-20" target="egMN0sAgLKU0uGwS3a4j-1">
          <mxGeometry relative="1" as="geometry">
            <mxPoint x="165" y="294" as="sourcePoint" />
            <mxPoint x="313" y="254" as="targetPoint" />
          </mxGeometry>
        </mxCell>
      </root>
    </mxGraphModel>
  </diagram>
</mxfile>
